<svg xmlns="http://www.w3.org/2000/svg" viewBox="0 0 390 780" font-family="'Plus Jakarta Sans','Segoe UI',sans-serif"><rect x="4" y="4" width="382" height="772" rx="46" fill="#0b0f14" opacity="1"/><clipPath id="scr"><rect x="14" y="14" width="362" height="752" rx="38"/></clipPath><g clip-path="url(#scr)"><defs>
      <radialGradient id="g1" cx="100%" cy="-10%" r="80%"><stop offset="0%" stop-color="#0F6E56" stop-opacity="0.20"/><stop offset="60%" stop-color="#0F6E56" stop-opacity="0"/></radialGradient>
      <radialGradient id="g2" cx="0%" cy="15%" r="70%"><stop offset="0%" stop-color="#C9A227" stop-opacity="0.12"/><stop offset="55%" stop-color="#C9A227" stop-opacity="0"/></radialGradient>
      <radialGradient id="g3" cx="50%" cy="120%" r="70%"><stop offset="0%" stop-color="#0F6E56" stop-opacity="0.12"/><stop offset="60%" stop-color="#0F6E56" stop-opacity="0"/></radialGradient>
      <linearGradient id="brandgrad" x1="0" y1="0" x2="1" y2="1"><stop offset="0%" stop-color="#12876c"/><stop offset="100%" stop-color="#0F6E56"/></linearGradient>
    </defs>
    <rect width="390" height="780" fill="#f6f7f6"/>
    <rect width="390" height="780" fill="url(#g1)"/><rect width="390" height="780" fill="url(#g2)"/><rect width="390" height="780" fill="url(#g3)"/><rect x="14" y="14" width="362" height="86" rx="0" fill="url(#brandgrad)" opacity="1"/><rect x="34" y="44" width="26" height="26" rx="8" fill="#fff" opacity="0.22"/><text x="47" y="63" font-family="'Sora','Segoe UI',sans-serif" font-size="13" font-weight="800" fill="#fff" text-anchor="middle">D</text><text x="70" y="61" font-family="'Sora','Segoe UI',sans-serif" font-size="16" font-weight="700" fill="#fff" text-anchor="start">Demo Agency</text><rect x="150.0" y="20" width="90" height="22" rx="11" fill="#0b0f14" opacity="1"/><g transform="translate(0,116)"><text x="24" y="34" font-family="'Sora','Segoe UI',sans-serif" font-size="20" font-weight="800" fill="#16181d" text-anchor="start">Pocket analytics</text><rect x="24" y="52" width="166" height="84" rx="14" fill="#ffffff" stroke="#ffffff" stroke-width="1.4" opacity="0.7"/><text x="40" y="82" font-family="'Plus Jakarta Sans','Segoe UI',sans-serif" font-size="11.5" font-weight="400" fill="#6b7280" text-anchor="start">Active leases</text><text x="40" y="116" font-family="'Sora','Segoe UI',sans-serif" font-size="20" font-weight="800" fill="#16181d" text-anchor="start">5</text><rect x="196" y="52" width="166" height="84" rx="14" fill="#ffffff" stroke="#ffffff" stroke-width="1.4" opacity="0.7"/><text x="212" y="82" font-family="'Plus Jakarta Sans','Segoe UI',sans-serif" font-size="11.5" font-weight="400" fill="#6b7280" text-anchor="start">Collected · Jul</text><text x="212" y="116" font-family="'Sora','Segoe UI',sans-serif" font-size="20" font-weight="800" fill="#0F6E56" text-anchor="start">R 41,400</text><rect x="24" y="148" width="166" height="84" rx="14" fill="#ffffff" stroke="#ffffff" stroke-width="1.4" opacity="0.7"/><text x="40" y="178" font-family="'Plus Jakarta Sans','Segoe UI',sans-serif" font-size="11.5" font-weight="400" fill="#6b7280" text-anchor="start">Outstanding</text><text x="40" y="212" font-family="'Sora','Segoe UI',sans-serif" font-size="20" font-weight="800" fill="#993C1D" text-anchor="start">R 9,200</text><rect x="196" y="148" width="166" height="84" rx="14" fill="#ffffff" stroke="#ffffff" stroke-width="1.4" opacity="0.7"/><text x="212" y="178" font-family="'Plus Jakarta Sans','Segoe UI',sans-serif" font-size="11.5" font-weight="400" fill="#6b7280" text-anchor="start">Open tickets</text><text x="212" y="212" font-family="'Sora','Segoe UI',sans-serif" font-size="20" font-weight="800" fill="#0F6E56" text-anchor="start">3</text><rect x="24" y="244" width="342" height="70" rx="16" fill="#ffffff" stroke="#ffffff" stroke-width="1.4" opacity="0.7"/><text x="44" y="276" font-family="'Plus Jakarta Sans','Segoe UI',sans-serif" font-size="12.5" font-weight="400" fill="#6b7280" text-anchor="start">Collection rate</text><text x="346" y="276" font-family="'Sora','Segoe UI',sans-serif" font-size="14" font-weight="700" fill="#0F6E56" text-anchor="end">92%</text><rect x="44" y="286" width="302" height="10" rx="5" fill="#E1F5EE" opacity="1"/><rect x="44" y="286" width="278" height="10" rx="5" fill="url(#brandgrad)" opacity="1"/><text x="24" y="344" font-family="'Sora','Segoe UI',sans-serif" font-size="14" font-weight="700" fill="#16181d" text-anchor="start">Portfolio</text><rect x="24" y="358" width="342" height="48" rx="16" fill="#ffffff" stroke="#ffffff" stroke-width="1.4" opacity="0.7"/><circle cx="46" cy="382" r="5" fill="#0F6E56"/><text x="62" y="380" font-family="'Sora','Segoe UI',sans-serif" font-size="13.5" font-weight="700" fill="#16181d" text-anchor="start">Unit 101</text><text x="62" y="396" font-family="'Plus Jakarta Sans','Segoe UI',sans-serif" font-size="11" font-weight="400" fill="#6b7280" text-anchor="start">Occupied</text><text x="346" y="380" font-family="'Plus Jakarta Sans','Segoe UI',sans-serif" font-size="12.5" font-weight="700" fill="#16181d" text-anchor="end">R 8,000 /mo</text><text x="346" y="396" font-family="'Plus Jakarta Sans','Segoe UI',sans-serif" font-size="11" font-weight="600" fill="#993C1D" text-anchor="end">R 9,200 due</text><rect x="24" y="416" width="342" height="48" rx="16" fill="#ffffff" stroke="#ffffff" stroke-width="1.4" opacity="0.7"/><circle cx="46" cy="440" r="5" fill="#0F6E56"/><text x="62" y="438" font-family="'Sora','Segoe UI',sans-serif" font-size="13.5" font-weight="700" fill="#16181d" text-anchor="start">A-101</text><text x="62" y="454" font-family="'Plus Jakarta Sans','Segoe UI',sans-serif" font-size="11" font-weight="400" fill="#6b7280" text-anchor="start">Occupied</text><text x="346" y="438" font-family="'Plus Jakarta Sans','Segoe UI',sans-serif" font-size="12.5" font-weight="700" fill="#16181d" text-anchor="end">R 12,000 /mo</text><rect x="24" y="474" width="342" height="48" rx="16" fill="#ffffff" stroke="#ffffff" stroke-width="1.4" opacity="0.7"/><circle cx="46" cy="498" r="5" fill="#0F6E56"/><text x="62" y="496" font-family="'Sora','Segoe UI',sans-serif" font-size="13.5" font-weight="700" fill="#16181d" text-anchor="start">B-201</text><text x="62" y="512" font-family="'Plus Jakarta Sans','Segoe UI',sans-serif" font-size="11" font-weight="400" fill="#6b7280" text-anchor="start">Occupied</text><text x="346" y="496" font-family="'Plus Jakarta Sans','Segoe UI',sans-serif" font-size="12.5" font-weight="700" fill="#16181d" text-anchor="end">R 15,000 /mo</text></g><rect x="20" y="690" width="350" height="60" rx="30" fill="#ffffff" opacity="0.85"/><rect x="20" y="690" width="350" height="60" rx="30" fill="none" stroke="#ffffff" stroke-width="1.2" opacity="1"/><rect x="46.0" y="704" width="18" height="18" rx="5" fill="#0F6E56" opacity="0.9"/><text x="55.0" y="736" font-family="'Plus Jakarta Sans','Segoe UI',sans-serif" font-size="9.5" font-weight="700" fill="#0F6E56" text-anchor="middle">Home</text><rect x="116.0" y="704" width="18" height="18" rx="5" fill="#6b7280" opacity="0.5"/><text x="125.0" y="736" font-family="'Plus Jakarta Sans','Segoe UI',sans-serif" font-size="9.5" font-weight="500" fill="#6b7280" text-anchor="middle">Approvals</text><rect x="186.0" y="704" width="18" height="18" rx="5" fill="#6b7280" opacity="0.5"/><text x="195.0" y="736" font-family="'Plus Jakarta Sans','Segoe UI',sans-serif" font-size="9.5" font-weight="500" fill="#6b7280" text-anchor="middle">Maint.</text><rect x="256.0" y="704" width="18" height="18" rx="5" fill="#6b7280" opacity="0.5"/><text x="265.0" y="736" font-family="'Plus Jakarta Sans','Segoe UI',sans-serif" font-size="9.5" font-weight="500" fill="#6b7280" text-anchor="middle">Messages</text><rect x="326.0" y="704" width="18" height="18" rx="5" fill="#6b7280" opacity="0.5"/><text x="335.0" y="736" font-family="'Plus Jakarta Sans','Segoe UI',sans-serif" font-size="9.5" font-weight="500" fill="#6b7280" text-anchor="middle">Profile</text></g><rect x="4" y="4" width="382" height="772" rx="46" fill="none" stroke="#000" stroke-opacity="0.25" stroke-width="2"/></svg>