<svg xmlns="http://www.w3.org/2000/svg" viewBox="0 0 1040 700" font-family="'Plus Jakarta Sans','Segoe UI',sans-serif"><defs>
      <radialGradient id="g1" cx="100%" cy="-10%" r="80%"><stop offset="0%" stop-color="#0F6E56" stop-opacity="0.20"/><stop offset="60%" stop-color="#0F6E56" stop-opacity="0"/></radialGradient>
      <radialGradient id="g2" cx="0%" cy="15%" r="70%"><stop offset="0%" stop-color="#C9A227" stop-opacity="0.12"/><stop offset="55%" stop-color="#C9A227" stop-opacity="0"/></radialGradient>
      <radialGradient id="g3" cx="50%" cy="120%" r="70%"><stop offset="0%" stop-color="#0F6E56" stop-opacity="0.12"/><stop offset="60%" stop-color="#0F6E56" stop-opacity="0"/></radialGradient>
      <linearGradient id="brandgrad" x1="0" y1="0" x2="1" y2="1"><stop offset="0%" stop-color="#12876c"/><stop offset="100%" stop-color="#0F6E56"/></linearGradient>
    </defs>
    <rect width="1040" height="700" fill="#f6f7f6"/>
    <rect width="1040" height="700" fill="url(#g1)"/><rect width="1040" height="700" fill="url(#g2)"/><rect width="1040" height="700" fill="url(#g3)"/><rect x="0" y="0" width="1040" height="34" rx="0" fill="#eef0ef" opacity="1"/><circle cx="20" cy="17" r="5" fill="#e0625a"/><circle cx="38" cy="17" r="5" fill="#e6b34d"/><circle cx="56" cy="17" r="5" fill="#5bbd6a"/><rect x="90" y="8" width="930" height="18" rx="9" fill="#ffffff" opacity="1"/><text x="104" y="21" font-family="'Plus Jakarta Sans','Segoe UI',sans-serif" font-size="11" font-weight="400" fill="#6b7280" text-anchor="start">app.demo-agency.co.za</text><g transform="translate(0,34)"><rect x="14" y="14" width="236" height="652" rx="26" fill="#ffffff" stroke="#ffffff" stroke-width="1.5" opacity="0.72"/><rect x="30" y="34" width="34" height="34" rx="10" fill="url(#brandgrad)" opacity="1"/><text x="47" y="57" font-family="'Sora','Segoe UI',sans-serif" font-size="18" font-weight="800" fill="#fff" text-anchor="middle">D</text><text x="74" y="52" font-family="'Sora','Segoe UI',sans-serif" font-size="15.5" font-weight="700" fill="#16181d" text-anchor="start">Demo Agency</text><text x="78" y="109" font-family="'Plus Jakarta Sans','Segoe UI',sans-serif" font-size="13" font-weight="500" fill="#4b5563" text-anchor="start">Dashboard</text><rect x="44" y="97" width="14" height="14" rx="4" fill="#6b7280" opacity="0.55"/><text x="78" y="146" font-family="'Plus Jakarta Sans','Segoe UI',sans-serif" font-size="13" font-weight="500" fill="#4b5563" text-anchor="start">Properties</text><rect x="44" y="134" width="14" height="14" rx="4" fill="#6b7280" opacity="0.55"/><text x="78" y="183" font-family="'Plus Jakarta Sans','Segoe UI',sans-serif" font-size="13" font-weight="500" fill="#4b5563" text-anchor="start">Leases</text><rect x="44" y="171" width="14" height="14" rx="4" fill="#6b7280" opacity="0.55"/><text x="78" y="220" font-family="'Plus Jakarta Sans','Segoe UI',sans-serif" font-size="13" font-weight="500" fill="#4b5563" text-anchor="start">Listings</text><rect x="44" y="208" width="14" height="14" rx="4" fill="#6b7280" opacity="0.55"/><text x="78" y="257" font-family="'Plus Jakarta Sans','Segoe UI',sans-serif" font-size="13" font-weight="500" fill="#4b5563" text-anchor="start">Applications</text><rect x="44" y="245" width="14" height="14" rx="4" fill="#6b7280" opacity="0.55"/><text x="78" y="294" font-family="'Plus Jakarta Sans','Segoe UI',sans-serif" font-size="13" font-weight="500" fill="#4b5563" text-anchor="start">Owners</text><rect x="44" y="282" width="14" height="14" rx="4" fill="#6b7280" opacity="0.55"/><text x="78" y="331" font-family="'Plus Jakarta Sans','Segoe UI',sans-serif" font-size="13" font-weight="500" fill="#4b5563" text-anchor="start">Providers</text><rect x="44" y="319" width="14" height="14" rx="4" fill="#6b7280" opacity="0.55"/><text x="78" y="368" font-family="'Plus Jakarta Sans','Segoe UI',sans-serif" font-size="13" font-weight="500" fill="#4b5563" text-anchor="start">Reports</text><rect x="44" y="356" width="14" height="14" rx="4" fill="#6b7280" opacity="0.55"/><text x="78" y="405" font-family="'Plus Jakarta Sans','Segoe UI',sans-serif" font-size="13" font-weight="500" fill="#4b5563" text-anchor="start">Documents</text><rect x="44" y="393" width="14" height="14" rx="4" fill="#6b7280" opacity="0.55"/><text x="78" y="442" font-family="'Plus Jakarta Sans','Segoe UI',sans-serif" font-size="13" font-weight="500" fill="#4b5563" text-anchor="start">Inspections</text><rect x="44" y="430" width="14" height="14" rx="4" fill="#6b7280" opacity="0.55"/><rect x="28" y="458" width="208" height="32" rx="10" fill="url(#brandgrad)" opacity="1"/><text x="78" y="479" font-family="'Plus Jakarta Sans','Segoe UI',sans-serif" font-size="13" font-weight="600" fill="#fff" text-anchor="start">API keys</text><rect x="44" y="467" width="14" height="14" rx="4" fill="#fff" opacity="0.9"/><text x="78" y="516" font-family="'Plus Jakarta Sans','Segoe UI',sans-serif" font-size="13" font-weight="500" fill="#4b5563" text-anchor="start">Notifications</text><rect x="44" y="504" width="14" height="14" rx="4" fill="#6b7280" opacity="0.55"/><text x="78" y="553" font-family="'Plus Jakarta Sans','Segoe UI',sans-serif" font-size="13" font-weight="500" fill="#4b5563" text-anchor="start">Messages</text><rect x="44" y="541" width="14" height="14" rx="4" fill="#6b7280" opacity="0.55"/><text x="78" y="590" font-family="'Plus Jakarta Sans','Segoe UI',sans-serif" font-size="13" font-weight="500" fill="#4b5563" text-anchor="start">Settings</text><rect x="44" y="578" width="14" height="14" rx="4" fill="#6b7280" opacity="0.55"/><line x1="30" y1="624" x2="234" y2="612" stroke="#e6e8ea"/><rect x="44" y="636" width="14" height="14" rx="4" fill="#6b7280" opacity="0.5"/><text x="78" y="648" font-family="'Plus Jakarta Sans','Segoe UI',sans-serif" font-size="13" font-weight="500" fill="#6b7280" text-anchor="start">Sign out</text><text x="272" y="58" font-family="'Sora','Segoe UI',sans-serif" font-size="30" font-weight="800" fill="#16181d" text-anchor="start">API keys</text><text x="272" y="84" font-family="'Plus Jakarta Sans','Segoe UI',sans-serif" font-size="14" font-weight="400" fill="#6b7280" text-anchor="start">Programmatic access to your data</text><g transform="translate(272,108)"><rect x="0" y="0" width="744" height="120" rx="16" fill="#ffffff" stroke="#ffffff" stroke-width="1.5" opacity="0.72"/><text x="20" y="32" font-family="'Sora','Segoe UI',sans-serif" font-size="14" font-weight="700" fill="#16181d" text-anchor="start">Create key</text><text x="20" y="64" font-family="'Plus Jakarta Sans','Segoe UI',sans-serif" font-size="11.5" font-weight="600" fill="#6b7280" text-anchor="start">Name</text><rect x="20" y="74" width="300" height="34" rx="9" fill="#fff" stroke="#dfe3e3" stroke-width="1" opacity="1"/><rect x="340" y="80" width="42.8" height="22" rx="11" fill="#0F6E56" opacity="0.14"/><rect x="340" y="80" width="42.8" height="22" rx="11" fill="none" stroke="#0F6E56" stroke-opacity="0.35"/><text x="361.4" y="95" font-family="'Plus Jakarta Sans','Segoe UI',sans-serif" font-size="11.5" font-weight="600" fill="#0F6E56" text-anchor="middle">read</text><rect x="400" y="80" width="50.0" height="22" rx="11" fill="#6b7280" opacity="0.14"/><rect x="400" y="80" width="50.0" height="22" rx="11" fill="none" stroke="#6b7280" stroke-opacity="0.35"/><text x="425.0" y="95" font-family="'Plus Jakarta Sans','Segoe UI',sans-serif" font-size="11.5" font-weight="600" fill="#6b7280" text-anchor="middle">write</text><rect x="620" y="74" width="104" height="34" rx="9" fill="url(#brandgrad)" opacity="1"/><text x="672" y="96" font-family="'Plus Jakarta Sans','Segoe UI',sans-serif" font-size="12" font-weight="700" fill="#fff" text-anchor="middle">+ Create</text><rect x="0" y="140" width="744" height="200" rx="16" fill="#ffffff" stroke="#ffffff" stroke-width="1.5" opacity="0.72"/><text x="20" y="170" font-family="'Plus Jakarta Sans','Segoe UI',sans-serif" font-size="11" font-weight="700" fill="#6b7280" text-anchor="start">NAME</text><text x="20" y="170" font-family="'Plus Jakarta Sans','Segoe UI',sans-serif" font-size="11" font-weight="700" fill="#6b7280" text-anchor="start">NAME</text><text x="230" y="170" font-family="'Plus Jakarta Sans','Segoe UI',sans-serif" font-size="11" font-weight="700" fill="#6b7280" text-anchor="start">PREFIX</text><text x="420" y="170" font-family="'Plus Jakarta Sans','Segoe UI',sans-serif" font-size="11" font-weight="700" fill="#6b7280" text-anchor="start">SCOPES</text><text x="570" y="170" font-family="'Plus Jakarta Sans','Segoe UI',sans-serif" font-size="11" font-weight="700" fill="#6b7280" text-anchor="start">STATUS</text><text x="20" y="198" font-family="'Plus Jakarta Sans','Segoe UI',sans-serif" font-size="13" font-weight="600" fill="#16181d" text-anchor="start">Zapier integration</text><text x="230" y="198" font-family="'Plus Jakarta Sans','Segoe UI',sans-serif" font-size="13" font-weight="400" fill="#6b7280" text-anchor="start">pms_live_a1b2…</text><text x="420" y="198" font-family="'Plus Jakarta Sans','Segoe UI',sans-serif" font-size="13" font-weight="400" fill="#6b7280" text-anchor="start">read</text><rect x="570" y="183" width="57.2" height="22" rx="11" fill="#0F6E56" opacity="0.14"/><rect x="570" y="183" width="57.2" height="22" rx="11" fill="none" stroke="#0F6E56" stroke-opacity="0.35"/><text x="598.6" y="198" font-family="'Plus Jakarta Sans','Segoe UI',sans-serif" font-size="11.5" font-weight="600" fill="#0F6E56" text-anchor="middle">active</text><line x1="20" y1="214" x2="724" y2="214" stroke="#e6e8ea"/><text x="20" y="242" font-family="'Plus Jakarta Sans','Segoe UI',sans-serif" font-size="13" font-weight="600" fill="#16181d" text-anchor="start">Reporting export</text><text x="230" y="242" font-family="'Plus Jakarta Sans','Segoe UI',sans-serif" font-size="13" font-weight="400" fill="#6b7280" text-anchor="start">pms_live_9x8y…</text><text x="420" y="242" font-family="'Plus Jakarta Sans','Segoe UI',sans-serif" font-size="13" font-weight="400" fill="#6b7280" text-anchor="start">read, write</text><rect x="570" y="227" width="64.4" height="22" rx="11" fill="#993C1D" opacity="0.14"/><rect x="570" y="227" width="64.4" height="22" rx="11" fill="none" stroke="#993C1D" stroke-opacity="0.35"/><text x="602.2" y="242" font-family="'Plus Jakarta Sans','Segoe UI',sans-serif" font-size="11.5" font-weight="600" fill="#993C1D" text-anchor="middle">revoked</text><line x1="20" y1="258" x2="724" y2="258" stroke="#e6e8ea"/></g></g></svg>